<svg xmlns="http://www.w3.org/2000/svg" width="100%" height="100%" viewBox="0 0 100 100" fill-rule="evenodd" stroke-linejoin="round" stroke-miterlimit="2" xmlns:v="https://vecta.io/nano"><circle cx="50" cy="50" r="41.639" fill="#fffefc"/><path d="M86.747 33.133h-.602v.602H84.94v.602h-1.205v.603H82.53v.602h-1.205v.603H80.12v.602h-1.204v.602h-1.205v.603h-1.205v.602h-1.205v.603h-1.205v.602h-1.204v.602h-1.205v.603h-1.205v.602h-1.205v.603h-1.205v.602h-1.205v.602h-1.204v.603h-1.205v.602h-1.205v.603h-.602v1.205h-.603v1.807h1.205v.602h4.217v.603h.602v-.603h1.808v.603h.602v-.603h3.012v.603h.602v-.603h1.205v.603h.603v1.807H62.651v.602h-.603v-.602h-5.422v.602h-.602v-.602h-3.012v.602h-.602v.603h-.603v1.204h-.602v.603h.602v.602h-.602v1.808h.602v.602h-.602v3.012h.602v.602h-.602v2.41h.602v.602h-.602v1.205h.602v.603h-.602v3.012h-1.807V67.47h-.603v-.603h.603v-.602h-.603V65.06h.603v-1.205h-.603v-.602h.603v-.602h-.603v-.603h.603v-.602h-.603v-.603h.603v-.602h-.603v-3.614H47.59v-.603h-.602v.603h-.602v-.603h-.603v.603h-1.205v1.204h-1.205v1.205h-.602v.603h-1.205v1.204h-.602v.603h-1.205v1.205h-1.205v1.204h-1.205v.603h-.602v1.205h-.602v.602H34.94v1.205h-1.205v1.205h-.602v.602h-1.205v1.205h-.603v.602H30.12v1.205h-1.204v1.205h-1.205v1.205h-1.205v1.205h-1.807v-.603h-.603v-.602h.603v-1.205h.602v-.602h1.205v-1.205h1.205v-.603h.602V69.88h.603v-.603h.602v-.602h1.205V67.47h.602v-.603h.603v-.602h1.205V65.06h.602v-.602h.602v-.603h.603v-.602h.602v-2.41h-.602v-.602h-3.012v.602H30.12v.603h-.602v.602h-1.205v.603h-1.205v.602h-1.807v.602h-.602v.603h-1.807v.602h-.603v.603h-1.205v.602H19.88v.602h-1.205v.603H17.47v.602h-1.205v.603h-2.41V67.47h.603v-1.205h1.807v-.602h.602v-.603h1.808v-.602h1.205v-.603h1.204v-.602h.603v-.602h1.807v-.603h1.205v-.602h.602v-.603h1.807v-.602h1.205v-.602h.603v-.603h1.204v-.602h1.808v-.603h1.205v-.602h.602v-.602h1.807v-.603h.603v-.602h1.204v-.603h.603v-1.205h.602v-.602h-.602v-1.205h-1.205v-.602H24.699v-.603h-.603v-1.204h1.205v-.603h1.205v.603h.602v-.603h1.205v.603h.603v-.603h1.204v.603h.603v-.603h2.41v.603h.602v-.603h2.41v.603h.602v-.603h1.205v.603h.602v-.603h2.41v.603h.602v-.603h1.205v.603h.602v-.603h1.205v.603h.603v-.603h2.409v-.602h1.205v-.603h.603v-.602h-.603v-1.205h.603v-.602h-.603v-.603h.603v-.602h-.603v-.603h.603v-1.204h-.603v-.603h.603v-.602h-.603v-.603h.603v-.602h-.603v-1.205h.603v-.602h-.603v-.603h.603v-.602h-.603v-.602h.603V34.94h-.603v-.603h.603v-.602h-.603v-.602h.603v-.603h-.603v-.602H50v-.603h.602v.603h.603v2.409h.602v.603h-.602v1.205h.602v.602h-.602v1.807h.602v.603h-.602v2.409h.602v.603h-.602v.602h.602v.602h.603v.603h2.409v-.603h.603v-.602h1.204v-1.205h.603v-.602h1.205v-.603h.602v-.602h.603v-.602h.602v-1.205h.602v-.603h1.205v-.602h.603v-1.205h.602v-.602h1.205v-1.205h1.205v-.602h.602v-.603h.602v-.602h.603v-1.205h.602v-.602h1.205v-1.205h1.205v-.603h.602v-.602h.603v-1.205h1.205v-.602h.602v-.603h.602v-1.205h1.808v1.205h.602v.603h-.602v.602h-1.205v1.205h-.603v.602h-.602v.603h-1.205v1.205h-1.205v.602h-.602v1.205h-.602v.602h-1.205v1.205H67.47v1.205h-.603v.602h-.602v.603h-.602v.602h-.603v3.012h.603v.602h1.204v-.602h2.41v-.602h1.205v-.603h1.205v-.602h1.205v-.603h.602v-.602h1.807v-.602h1.205v-.603h.602v-.602h1.808v-.603h1.204v-.602h1.205v-.602h1.205v-.603h.603v-.602h1.807v-.603h1.205v1.205h.602v.603zM100 45.783v-1.205h-.602v-3.614h-.603v-2.41h-.602v-2.409h-.603v-1.808h-.602v-2.409h-.602v-1.205h-.603v-1.205h-.602v-1.205h-.603v-.602h-.602v-.603h.602v-.602h-.602v-.602h-.603v-1.205h-.602v-.603h-.602v-1.205h-.603v-.602h-.602v-1.205h-.603v-.602h-.602v-.602h-.602v-1.205h-.603v-.603h-.602v-.602h-.603v-.603h-.602v-.602h-.602v-.602h-.603v-.603h-.602v-.602h-.603v-.603h-.602v-.602h-.602v-.602h-.603v-.603h-.602v-.602h-.603v-.603H80.12v-.602h-.602v-.602h-1.205v-.603h-.602v-.602h-1.205v-.603h-.602v-.602h-1.205v-.602h-1.205v-.603h-1.205v-.602h-.602v-.603h-2.41v-.602h-.602v-.603h-1.808v-.602H65.06V2.41h-1.807v-.603h-.602v.603h-.603v-.603h-1.205v-.602h-3.614V.602h-.603v.603h-.602V.602H52.41V0h-.603v.602h-.602V0h-.603v.602h-2.409V0h-.603v.602h-4.217v.603h-4.216v.602h-1.205v.603H34.94v.602h-1.205v.602h-1.807v.603H30.12v.602h-1.204v.603h-1.205v.602h-1.205v.603h-.602v.602h-1.205v.602h-1.205v.603h-.602v.602h-1.205v.603h-.603v.602H19.88v.602h-.603v.603h-.602v.602h-.603v.603h-.602v.602h-1.205v.602h-.602v1.205h-1.205v.603h-.603v1.204h-1.204v1.205h-.603v.603h-.602v.602h-.603v.603h-.602v1.204h-.603v.603h-.602v1.204h-.602v1.205h-.603v.603h-.602v.602h-.602v1.205h-.603v1.205h-.602v1.205h-.603v1.205h-.602v1.807h-.603v1.205h-.602v2.409H2.41v1.205h-.603v.602h.603v.603h-.603v1.807h-.602v3.012H.602v.602h.603v.603H.602v7.229H0v.602h.602v5.422h.603v3.012h.602v3.012h.603v1.807h.602v1.807h.602v1.205h.603v1.808h.602v1.204h.603v1.205h.602v1.205h.603v1.205h.602v1.205h.602v1.205h.603v.602h.602v.602h.602v.603h.603v1.204h.602v.603h.603v.602h.602v1.205h.603v.603h.602v.602h.602v.602h.603v.603h.602v.602h.603v.603h.602v.602h.602v.602h.603v.603h1.205v.602h.602v.603h.603v.602h1.204v.603h.603v.602h.602v.602h1.205v.603h.602v.602h1.205v.602h1.205v.603h.602v.602h1.808v.603h1.204v.602h1.205v.603h1.808v.602h1.204v.602h2.41v.603h1.807v.602h3.012v.603h3.615V100h.602v-.602h.603V100h.602v-.602h.602V100h.603v-.602h.602V100h4.217v-.602h.602V100h1.205v-.602h3.615v-.603h3.614v-.602h1.807v-.603h1.808v-.602h1.807v-.602h1.205v-.603h1.807v-.602h1.205v-.603h1.205v-.602h1.204v-.603h1.205v-.602h1.205v-.602h.602v-.603h.603v-.602h1.205v-.602h1.204v-.603h.603v-.602h.602v-.603h.603v-.602h.602v-.603h.603v-.602h1.204v-.602h.603V84.94h1.205v-1.205h1.204V82.53h.603v-.602h.602v-.603h.603v-.602h.602v-1.205h.602v-.602h.603v-.603h.602v-1.204h.603v-.603h.602v-1.205h.602v-1.205h.603v-.602h.602v-1.205h.603v-1.807h.602v-1.205h.603v-1.205h.602v-1.807h.602v-1.807h.603v-3.012h.602v-1.205h.603v-1.205h-.603v-.602h.603v-3.012H100v-1.205h-.602v-.603H100v-1.807h-.602v-.602H100v-1.807h-.602v-.603H100v-2.409h-.602v-.603H100z" fill-rule="nonzero"/></svg>